<mxfile host="app.diagrams.net" modified="2023-03-06T01:25:54.485Z" agent="5.0 (Windows NT 6.1; Win64; x64) AppleWebKit/537.36 (KHTML, like Gecko) Chrome/76.0.3809.100 Safari/537.36" etag="Y4CF8DXJakqGEVCjMC7y" version="21.0.2" type="github">
  <diagram name="Page-1" id="ov5w-oJEvnXDzye5x__X">
    <mxGraphModel dx="538" dy="452" grid="1" gridSize="10" guides="1" tooltips="1" connect="1" arrows="1" fold="1" page="1" pageScale="1" pageWidth="827" pageHeight="1169" math="0" shadow="0">
      <root>
        <mxCell id="0" />
        <mxCell id="1" parent="0" />
        <mxCell id="-wWJylMkJj5rvpVHsZLc-1" value="Admin" style="shape=umlActor;verticalLabelPosition=bottom;verticalAlign=top;html=1;outlineConnect=0;" vertex="1" parent="1">
          <mxGeometry x="670" y="130" width="30" height="60" as="geometry" />
        </mxCell>
        <mxCell id="-wWJylMkJj5rvpVHsZLc-9" value="input data karyawan" style="ellipse;whiteSpace=wrap;html=1;" vertex="1" parent="1">
          <mxGeometry x="360" y="50" width="100" height="50" as="geometry" />
        </mxCell>
        <mxCell id="-wWJylMkJj5rvpVHsZLc-10" value="input data jenis pembayaran" style="ellipse;whiteSpace=wrap;html=1;" vertex="1" parent="1">
          <mxGeometry x="360" y="110" width="100" height="50" as="geometry" />
        </mxCell>
        <mxCell id="-wWJylMkJj5rvpVHsZLc-11" value="input data paket" style="ellipse;whiteSpace=wrap;html=1;" vertex="1" parent="1">
          <mxGeometry x="360" y="170" width="100" height="50" as="geometry" />
        </mxCell>
        <mxCell id="-wWJylMkJj5rvpVHsZLc-12" value="input data karyawan" style="ellipse;whiteSpace=wrap;html=1;" vertex="1" parent="1">
          <mxGeometry x="360" y="230" width="100" height="50" as="geometry" />
        </mxCell>
        <mxCell id="-wWJylMkJj5rvpVHsZLc-13" value="input data konsumen" style="ellipse;whiteSpace=wrap;html=1;" vertex="1" parent="1">
          <mxGeometry x="360" y="290" width="100" height="50" as="geometry" />
        </mxCell>
        <mxCell id="-wWJylMkJj5rvpVHsZLc-16" value="lihat history order" style="ellipse;whiteSpace=wrap;html=1;" vertex="1" parent="1">
          <mxGeometry x="360" y="350" width="100" height="50" as="geometry" />
        </mxCell>
        <mxCell id="-wWJylMkJj5rvpVHsZLc-17" value="login" style="ellipse;whiteSpace=wrap;html=1;" vertex="1" parent="1">
          <mxGeometry x="360" y="410" width="100" height="50" as="geometry" />
        </mxCell>
        <mxCell id="-wWJylMkJj5rvpVHsZLc-18" value="Konsumen" style="shape=umlActor;verticalLabelPosition=bottom;verticalAlign=top;html=1;outlineConnect=0;" vertex="1" parent="1">
          <mxGeometry x="110" y="330" width="30" height="60" as="geometry" />
        </mxCell>
        <mxCell id="-wWJylMkJj5rvpVHsZLc-19" value="" style="endArrow=classic;html=1;rounded=0;entryX=0;entryY=0.5;entryDx=0;entryDy=0;" edge="1" parent="1" source="-wWJylMkJj5rvpVHsZLc-18" target="-wWJylMkJj5rvpVHsZLc-16">
          <mxGeometry width="50" height="50" relative="1" as="geometry">
            <mxPoint x="150" y="380" as="sourcePoint" />
            <mxPoint x="200" y="330" as="targetPoint" />
          </mxGeometry>
        </mxCell>
        <mxCell id="-wWJylMkJj5rvpVHsZLc-21" value="" style="endArrow=classic;html=1;rounded=0;entryX=1;entryY=0.5;entryDx=0;entryDy=0;exitX=0;exitY=0.3333333333333333;exitDx=0;exitDy=0;exitPerimeter=0;" edge="1" parent="1" source="-wWJylMkJj5rvpVHsZLc-1" target="-wWJylMkJj5rvpVHsZLc-9">
          <mxGeometry width="50" height="50" relative="1" as="geometry">
            <mxPoint x="660" y="150" as="sourcePoint" />
            <mxPoint x="440" y="200" as="targetPoint" />
          </mxGeometry>
        </mxCell>
        <mxCell id="-wWJylMkJj5rvpVHsZLc-22" value="" style="endArrow=classic;html=1;rounded=0;entryX=1;entryY=0.5;entryDx=0;entryDy=0;" edge="1" parent="1" source="-wWJylMkJj5rvpVHsZLc-1" target="-wWJylMkJj5rvpVHsZLc-10">
          <mxGeometry width="50" height="50" relative="1" as="geometry">
            <mxPoint x="390" y="250" as="sourcePoint" />
            <mxPoint x="440" y="200" as="targetPoint" />
          </mxGeometry>
        </mxCell>
        <mxCell id="-wWJylMkJj5rvpVHsZLc-25" value="" style="endArrow=classic;html=1;rounded=0;entryX=1;entryY=0.5;entryDx=0;entryDy=0;" edge="1" parent="1" source="-wWJylMkJj5rvpVHsZLc-1" target="-wWJylMkJj5rvpVHsZLc-11">
          <mxGeometry width="50" height="50" relative="1" as="geometry">
            <mxPoint x="390" y="250" as="sourcePoint" />
            <mxPoint x="440" y="200" as="targetPoint" />
          </mxGeometry>
        </mxCell>
        <mxCell id="-wWJylMkJj5rvpVHsZLc-27" value="" style="endArrow=classic;html=1;rounded=0;entryX=1;entryY=0.5;entryDx=0;entryDy=0;" edge="1" parent="1" source="-wWJylMkJj5rvpVHsZLc-1" target="-wWJylMkJj5rvpVHsZLc-12">
          <mxGeometry width="50" height="50" relative="1" as="geometry">
            <mxPoint x="390" y="250" as="sourcePoint" />
            <mxPoint x="440" y="200" as="targetPoint" />
          </mxGeometry>
        </mxCell>
        <mxCell id="-wWJylMkJj5rvpVHsZLc-28" value="" style="endArrow=classic;html=1;rounded=0;entryX=1;entryY=0.5;entryDx=0;entryDy=0;" edge="1" parent="1" source="-wWJylMkJj5rvpVHsZLc-1" target="-wWJylMkJj5rvpVHsZLc-13">
          <mxGeometry width="50" height="50" relative="1" as="geometry">
            <mxPoint x="390" y="250" as="sourcePoint" />
            <mxPoint x="440" y="200" as="targetPoint" />
          </mxGeometry>
        </mxCell>
        <mxCell id="-wWJylMkJj5rvpVHsZLc-29" value="" style="endArrow=classic;html=1;rounded=0;entryX=1;entryY=0.5;entryDx=0;entryDy=0;" edge="1" parent="1" source="-wWJylMkJj5rvpVHsZLc-1" target="-wWJylMkJj5rvpVHsZLc-16">
          <mxGeometry width="50" height="50" relative="1" as="geometry">
            <mxPoint x="470" y="250" as="sourcePoint" />
            <mxPoint x="520" y="200" as="targetPoint" />
          </mxGeometry>
        </mxCell>
        <mxCell id="-wWJylMkJj5rvpVHsZLc-32" value="" style="endArrow=classic;html=1;rounded=0;entryX=1;entryY=0.5;entryDx=0;entryDy=0;" edge="1" parent="1" source="-wWJylMkJj5rvpVHsZLc-1" target="-wWJylMkJj5rvpVHsZLc-17">
          <mxGeometry width="50" height="50" relative="1" as="geometry">
            <mxPoint x="470" y="250" as="sourcePoint" />
            <mxPoint x="520" y="200" as="targetPoint" />
          </mxGeometry>
        </mxCell>
        <mxCell id="-wWJylMkJj5rvpVHsZLc-34" value="buat transaksi pembayaran" style="ellipse;whiteSpace=wrap;html=1;" vertex="1" parent="1">
          <mxGeometry x="360" y="470" width="100" height="50" as="geometry" />
        </mxCell>
        <mxCell id="-wWJylMkJj5rvpVHsZLc-35" value="" style="endArrow=classic;html=1;rounded=0;entryX=1;entryY=0.5;entryDx=0;entryDy=0;" edge="1" parent="1" source="-wWJylMkJj5rvpVHsZLc-1" target="-wWJylMkJj5rvpVHsZLc-34">
          <mxGeometry width="50" height="50" relative="1" as="geometry">
            <mxPoint x="420" y="310" as="sourcePoint" />
            <mxPoint x="470" y="260" as="targetPoint" />
          </mxGeometry>
        </mxCell>
        <mxCell id="-wWJylMkJj5rvpVHsZLc-36" value="Karyawan" style="shape=umlActor;verticalLabelPosition=bottom;verticalAlign=top;html=1;outlineConnect=0;" vertex="1" parent="1">
          <mxGeometry x="670" y="400" width="30" height="60" as="geometry" />
        </mxCell>
      </root>
    </mxGraphModel>
  </diagram>
</mxfile>
